# This file uses centimeters as units for non-parametric coordinates.

mtllib road_cross.mtl
g default
v 247.686554 0.000000 3.756172
v 250.848862 0.000000 3.756172
v 254.011154 0.000000 3.756172
v 257.173462 0.000000 3.756172
v 260.335754 0.000000 3.756172
v 263.498047 0.000000 3.756172
v 266.660339 0.000000 3.756172
v 269.822632 0.000000 3.756172
v 272.984955 0.000000 3.756172
v 276.147247 0.000000 3.756172
v 279.309570 0.000000 3.756172
v 247.686554 0.000000 -1.513000
v 250.848862 0.000000 -1.513000
v 254.011154 0.000000 -1.513000
v 257.173462 0.000000 -1.513000
v 260.335754 0.000000 -1.513000
v 263.498047 0.000000 -1.513000
v 266.660339 0.000000 -1.513000
v 269.822632 0.000000 -1.513000
v 272.984955 0.000000 -1.513000
v 276.147247 0.000000 -1.513000
v 279.309570 0.000000 -1.513000
v 247.686554 0.000000 -6.782143
v 250.848862 0.000000 -6.782143
v 254.011154 0.000000 -6.782143
v 257.173462 0.000000 -6.782143
v 260.335754 0.000000 -6.782143
v 263.498047 0.000000 -6.782143
v 266.660339 0.000000 -6.782143
v 269.822632 0.000000 -6.782143
v 272.984955 0.000000 -6.782143
v 276.147247 0.000000 -6.782143
v 279.309570 0.000000 -6.782143
v 247.686554 0.000000 -12.051298
v 250.848862 0.000000 -12.051298
v 254.011154 0.000000 -12.051298
v 257.173462 0.000000 -12.051298
v 260.335754 0.000000 -12.051298
v 263.498047 0.000000 -12.051298
v 266.660339 0.000000 -12.051298
v 269.822632 0.000000 -12.051298
v 272.984955 0.000000 -12.051298
v 276.147247 0.000000 -12.051298
v 279.309570 0.000000 -12.051298
v 247.686554 0.000000 -17.320456
v 250.848862 0.000000 -17.320456
v 254.011154 0.000000 -17.320456
v 257.173462 0.000000 -17.320456
v 260.335754 0.000000 -17.320456
v 263.498047 0.000000 -17.320456
v 266.660339 0.000000 -17.320456
v 269.822632 0.000000 -17.320456
v 272.984955 0.000000 -17.320456
v 276.147247 0.000000 -17.320456
v 279.309570 0.000000 -17.320456
v 247.686554 0.000000 -22.589611
v 250.848862 0.000000 -22.589611
v 254.011154 0.000000 -22.589611
v 257.173462 0.000000 -22.589611
v 260.335754 0.000000 -22.589611
v 263.498047 0.000000 -22.589611
v 266.660339 0.000000 -22.589611
v 269.822632 0.000000 -22.589611
v 272.984955 0.000000 -22.589611
v 276.147247 0.000000 -22.589611
v 279.309570 0.000000 -22.589611
v 247.686554 0.000000 -27.858765
v 250.848862 0.000000 -27.858765
v 254.011154 0.000000 -27.858765
v 257.173462 0.000000 -27.858765
v 260.335754 0.000000 -27.858765
v 263.498047 0.000000 -27.858765
v 266.660339 0.000000 -27.858765
v 269.822632 0.000000 -27.858765
v 272.984955 0.000000 -27.858765
v 276.147247 0.000000 -27.858765
v 279.309570 0.000000 -27.858765
v 247.686554 0.000000 -33.127918
v 250.848862 0.000000 -33.127918
v 254.011154 0.000000 -33.127918
v 257.173462 0.000000 -33.127918
v 260.335754 0.000000 -33.127918
v 263.498047 0.000000 -33.127918
v 266.660339 0.000000 -33.127918
v 269.822632 0.000000 -33.127918
v 272.984955 0.000000 -33.127918
v 276.147247 0.000000 -33.127918
v 279.309570 0.000000 -33.127918
v 247.686554 0.000000 -38.397076
v 250.848862 0.000000 -38.397076
v 254.011154 0.000000 -38.397076
v 257.173462 0.000000 -38.397076
v 260.335754 0.000000 -38.397076
v 263.498047 0.000000 -38.397076
v 266.660339 0.000000 -38.397076
v 269.822632 0.000000 -38.397076
v 272.984955 0.000000 -38.397076
v 276.147247 0.000000 -38.397076
v 279.309570 0.000000 -38.397076
v 247.686554 0.000000 -43.666229
v 250.848862 0.000000 -43.666229
v 254.011154 0.000000 -43.666229
v 257.173462 0.000000 -43.666229
v 260.335754 0.000000 -43.666229
v 263.498047 0.000000 -43.666229
v 266.660339 0.000000 -43.666229
v 269.822632 0.000000 -43.666229
v 272.984955 0.000000 -43.666229
v 276.147247 0.000000 -43.666229
v 279.309570 0.000000 -43.666229
v 247.686554 0.000000 -48.935387
v 250.848862 0.000000 -48.935387
v 254.011154 0.000000 -48.935387
v 257.173462 0.000000 -48.935387
v 260.335754 0.000000 -48.935387
v 263.498047 0.000000 -48.935387
v 266.660339 0.000000 -48.935387
v 269.822632 0.000000 -48.935387
v 272.984955 0.000000 -48.935387
v 276.147247 0.000000 -48.935387
v 279.309570 0.000000 -48.935387
v 237.145554 0.000000 -6.782143
v 237.145554 0.000000 -12.051298
v 289.850586 0.000000 -6.782143
v 289.850586 0.000000 -12.051298
v 237.145554 0.000000 -17.320456
v 289.850586 0.000000 -17.320456
v 237.145554 0.000000 -22.589611
v 289.850586 0.000000 -22.589611
v 237.145554 0.000000 -27.858765
v 289.850586 0.000000 -27.858765
v 237.145554 0.000000 -33.127918
v 289.850586 0.000000 -33.127918
v 237.145554 0.000000 -38.397076
v 289.850586 0.000000 -38.397076
v 283.525970 0.000000 -6.782143
v 283.525970 0.000000 -12.051296
v 283.525970 0.000000 -17.320456
v 283.525970 0.000000 -22.589611
v 283.525970 0.000000 -27.858765
v 283.525970 0.000000 -33.127918
v 283.525970 0.000000 -38.397076
v 286.688263 0.000000 -6.782143
v 286.688263 0.000000 -12.051296
v 286.688263 0.000000 -17.320456
v 286.688263 0.000000 -22.589611
v 286.688263 0.000000 -27.858765
v 286.688263 0.000000 -33.127918
v 286.688263 0.000000 -38.397076
v 243.470154 0.000000 -6.782143
v 243.470154 0.000000 -12.051296
v 243.470154 0.000000 -17.320456
v 243.470154 0.000000 -22.589611
v 243.470154 0.000000 -27.858765
v 243.470154 0.000000 -33.127918
v 243.470154 0.000000 -38.397076
v 240.307861 0.000000 -6.782143
v 240.307861 0.000000 -12.051296
v 240.307861 0.000000 -17.320456
v 240.307861 0.000000 -22.589611
v 240.307861 0.000000 -27.858765
v 240.307861 0.000000 -33.127918
v 240.307861 0.000000 -38.397076
vt 0.001992 0.798805
vt 0.001992 0.739044
vt 0.101568 0.739044
vt 0.101568 0.798805
vt 0.001992 0.679283
vt 0.101568 0.679283
vt 0.201144 0.739044
vt 0.201144 0.798805
vt 0.001992 0.619522
vt 0.101568 0.619522
vt 0.201144 0.679283
vt 0.300720 0.739044
vt 0.300720 0.798805
vt 0.001992 0.559761
vt 0.101568 0.559761
vt 0.201144 0.619522
vt 0.300720 0.679283
vt 0.400296 0.739044
vt 0.400296 0.798805
vt 0.300720 0.878486
vt 0.201144 0.878486
vt 0.001992 0.500000
vt 0.101568 0.500000
vt 0.201144 0.559761
vt 0.300720 0.619522
vt 0.400296 0.679283
vt 0.499872 0.739044
vt 0.499872 0.798805
vt 0.400296 0.878486
vt 0.300720 0.938247
vt 0.201144 0.938247
vt 0.001992 0.440239
vt 0.101568 0.440239
vt 0.201144 0.500000
vt 0.300720 0.559761
vt 0.400296 0.619522
vt 0.499872 0.679283
vt 0.599449 0.739044
vt 0.599449 0.798805
vt 0.499872 0.878486
vt 0.400296 0.938247
vt 0.300720 0.998008
vt 0.201144 0.998008
vt 0.001992 0.380479
vt 0.101568 0.380479
vt 0.201144 0.440239
vt 0.300720 0.500000
vt 0.400296 0.559761
vt 0.499872 0.619522
vt 0.599449 0.679283
vt 0.699025 0.739044
vt 0.699025 0.798805
vt 0.599449 0.878486
vt 0.499872 0.938247
vt 0.400296 0.998008
vt 0.001992 0.320717
vt 0.101568 0.320717
vt 0.201144 0.380479
vt 0.300720 0.440239
vt 0.400296 0.500000
vt 0.499872 0.559761
vt 0.599449 0.619522
vt 0.699025 0.679283
vt 0.798601 0.739044
vt 0.798601 0.798805
vt 0.699025 0.878486
vt 0.599449 0.938247
vt 0.499872 0.998008
vt 0.001992 0.260956
vt 0.101568 0.260956
vt 0.201144 0.320717
vt 0.300720 0.380479
vt 0.400296 0.440239
vt 0.499872 0.500000
vt 0.599449 0.559761
vt 0.699025 0.619522
vt 0.798601 0.679283
vt 0.898177 0.739044
vt 0.898177 0.798805
vt 0.798601 0.878486
vt 0.699025 0.938247
vt 0.599449 0.998008
vt 0.001992 0.201195
vt 0.101568 0.201195
vt 0.201144 0.260956
vt 0.300720 0.320717
vt 0.400296 0.380479
vt 0.499872 0.440239
vt 0.599449 0.500000
vt 0.699025 0.559761
vt 0.798601 0.619522
vt 0.898177 0.679283
vt 0.997753 0.739044
vt 0.997753 0.798805
vt 0.798601 0.938247
vt 0.699025 0.998008
vt 0.201144 0.201195
vt 0.300720 0.260956
vt 0.400296 0.320717
vt 0.499872 0.380479
vt 0.599449 0.440239
vt 0.699025 0.500000
vt 0.798601 0.559761
vt 0.898177 0.619522
vt 0.997753 0.679283
vt 0.798601 0.998008
vt 0.300720 0.201195
vt 0.400296 0.260956
vt 0.499872 0.320717
vt 0.599449 0.380479
vt 0.699025 0.440239
vt 0.798601 0.500000
vt 0.898177 0.559761
vt 0.997753 0.619522
vt 0.201144 0.121514
vt 0.300720 0.121514
vt 0.400296 0.201195
vt 0.499872 0.260956
vt 0.599449 0.320717
vt 0.699025 0.380479
vt 0.798601 0.440239
vt 0.898177 0.500000
vt 0.997753 0.559761
vt 0.201144 0.061753
vt 0.300720 0.061753
vt 0.400296 0.121514
vt 0.499872 0.201195
vt 0.599449 0.260956
vt 0.699025 0.320717
vt 0.798601 0.380479
vt 0.898177 0.440239
vt 0.997753 0.500000
vt 0.201144 0.001992
vt 0.300720 0.001992
vt 0.400296 0.061753
vt 0.499872 0.121514
vt 0.599449 0.201195
vt 0.699025 0.260956
vt 0.798601 0.320717
vt 0.898177 0.380479
vt 0.997753 0.440239
vt 0.400296 0.001992
vt 0.499872 0.061753
vt 0.599449 0.121514
vt 0.699025 0.201195
vt 0.798601 0.260956
vt 0.898177 0.320717
vt 0.997753 0.380479
vt 0.499872 0.001992
vt 0.599449 0.061753
vt 0.699025 0.121514
vt 0.798601 0.201195
vt 0.898177 0.260956
vt 0.997753 0.320717
vt 0.599449 0.001992
vt 0.699025 0.061753
vt 0.798601 0.121514
vt 0.898177 0.201195
vt 0.997753 0.260956
vt 0.699025 0.001992
vt 0.798601 0.061753
vt 0.997753 0.201195
vt 0.798601 0.001992
vn 0.000000 1.000000 0.000000
vn 0.000000 1.000000 0.000000
vn 0.000000 1.000000 0.000000
vn 0.000000 1.000000 0.000000
vn 0.000000 1.000000 0.000000
vn 0.000000 1.000000 0.000000
vn 0.000000 1.000000 0.000000
vn 0.000000 1.000000 0.000000
vn 0.000000 1.000000 0.000000
vn 0.000000 1.000000 0.000000
vn 0.000000 1.000000 0.000000
vn 0.000000 1.000000 0.000000
vn 0.000000 1.000000 0.000000
vn 0.000000 1.000000 0.000000
vn 0.000000 1.000000 0.000000
vn 0.000000 1.000000 0.000000
vn 0.000000 1.000000 0.000000
vn 0.000000 1.000000 0.000000
vn 0.000000 1.000000 0.000000
vn 0.000000 1.000000 0.000000
vn 0.000000 1.000000 0.000000
vn 0.000000 1.000000 0.000000
vn 0.000000 1.000000 0.000000
vn 0.000000 1.000000 0.000000
vn 0.000000 1.000000 0.000000
vn 0.000000 1.000000 0.000000
vn 0.000000 1.000000 0.000000
vn 0.000000 1.000000 0.000000
vn 0.000000 1.000000 0.000000
vn 0.000000 1.000000 0.000000
vn 0.000000 1.000000 0.000000
vn 0.000000 1.000000 0.000000
vn 0.000000 1.000000 0.000000
vn 0.000000 1.000000 0.000000
vn 0.000000 1.000000 0.000000
vn 0.000000 1.000000 0.000000
vn 0.000000 1.000000 0.000000
vn 0.000000 1.000000 0.000000
vn 0.000000 1.000000 0.000000
vn 0.000000 1.000000 0.000000
vn 0.000000 1.000000 0.000000
vn 0.000000 1.000000 0.000000
vn 0.000000 1.000000 0.000000
vn 0.000000 1.000000 0.000000
vn 0.000000 1.000000 0.000000
vn 0.000000 1.000000 0.000000
vn 0.000000 1.000000 0.000000
vn 0.000000 1.000000 0.000000
vn 0.000000 1.000000 0.000000
vn 0.000000 1.000000 0.000000
vn 0.000000 1.000000 0.000000
vn 0.000000 1.000000 0.000000
vn 0.000000 1.000000 0.000000
vn 0.000000 1.000000 0.000000
vn 0.000000 1.000000 0.000000
vn 0.000000 1.000000 0.000000
vn 0.000000 1.000000 0.000000
vn 0.000000 1.000000 0.000000
vn 0.000000 1.000000 0.000000
vn 0.000000 1.000000 0.000000
vn 0.000000 1.000000 0.000000
vn 0.000000 1.000000 0.000000
vn 0.000000 1.000000 0.000000
vn 0.000000 1.000000 0.000000
vn 0.000000 1.000000 0.000000
vn 0.000000 1.000000 0.000000
vn 0.000000 1.000000 0.000000
vn 0.000000 1.000000 0.000000
vn 0.000000 1.000000 0.000000
vn 0.000000 1.000000 0.000000
vn 0.000000 1.000000 0.000000
vn 0.000000 1.000000 0.000000
vn 0.000000 1.000000 0.000000
vn 0.000000 1.000000 0.000000
vn 0.000000 1.000000 0.000000
vn 0.000000 1.000000 0.000000
vn 0.000000 1.000000 0.000000
vn 0.000000 1.000000 0.000000
vn 0.000000 1.000000 0.000000
vn 0.000000 1.000000 0.000000
vn 0.000000 1.000000 0.000000
vn 0.000000 1.000000 0.000000
vn 0.000000 1.000000 0.000000
vn 0.000000 1.000000 0.000000
vn 0.000000 1.000000 0.000000
vn 0.000000 1.000000 0.000000
vn 0.000000 1.000000 0.000000
vn 0.000000 1.000000 0.000000
vn 0.000000 1.000000 0.000000
vn 0.000000 1.000000 0.000000
vn 0.000000 1.000000 0.000000
vn 0.000000 1.000000 0.000000
vn 0.000000 1.000000 0.000000
vn 0.000000 1.000000 0.000000
vn 0.000000 1.000000 0.000000
vn 0.000000 1.000000 0.000000
vn 0.000000 1.000000 0.000000
vn 0.000000 1.000000 0.000000
vn 0.000000 1.000000 0.000000
vn 0.000000 1.000000 0.000000
vn 0.000000 1.000000 0.000000
vn 0.000000 1.000000 0.000000
vn 0.000000 1.000000 0.000000
vn 0.000000 1.000000 0.000000
vn 0.000000 1.000000 0.000000
vn 0.000000 1.000000 0.000000
vn 0.000000 1.000000 0.000000
vn 0.000000 1.000000 0.000000
vn 0.000000 1.000000 0.000000
vn 0.000000 1.000000 0.000000
vn 0.000000 1.000000 0.000000
vn 0.000000 1.000000 0.000000
vn 0.000000 1.000000 0.000000
vn 0.000000 1.000000 0.000000
vn 0.000000 1.000000 0.000000
vn 0.000000 1.000000 0.000000
vn 0.000000 1.000000 0.000000
vn 0.000000 1.000000 0.000000
vn 0.000000 1.000000 0.000000
vn 0.000000 1.000000 0.000000
vn 0.000000 1.000000 0.000000
vn 0.000000 1.000000 0.000000
vn 0.000000 1.000000 0.000000
vn 0.000000 1.000000 0.000000
vn 0.000000 1.000000 0.000000
vn 0.000000 1.000000 0.000000
vn 0.000000 1.000000 0.000000
vn 0.000000 1.000000 0.000000
vn 0.000000 1.000000 0.000000
vn 0.000000 1.000000 0.000000
vn 0.000000 1.000000 0.000000
vn 0.000000 1.000000 0.000000
vn 0.000000 1.000000 0.000000
vn 0.000000 1.000000 0.000000
vn 0.000000 1.000000 0.000000
vn 0.000000 1.000000 0.000000
vn 0.000000 1.000000 0.000000
vn 0.000000 1.000000 0.000000
vn 0.000000 1.000000 0.000000
vn 0.000000 1.000000 0.000000
vn 0.000000 1.000000 0.000000
vn 0.000000 1.000000 0.000000
vn 0.000000 1.000000 0.000000
vn 0.000000 1.000000 0.000000
vn 0.000000 1.000000 0.000000
vn 0.000000 1.000000 0.000000
vn 0.000000 1.000000 0.000000
vn 0.000000 1.000000 0.000000
vn 0.000000 1.000000 0.000000
vn 0.000000 1.000000 0.000000
vn 0.000000 1.000000 0.000000
vn 0.000000 1.000000 0.000000
vn 0.000000 1.000000 0.000000
vn 0.000000 1.000000 0.000000
vn 0.000000 1.000000 0.000000
vn 0.000000 1.000000 0.000000
vn 0.000000 1.000000 0.000000
vn 0.000000 1.000000 0.000000
vn 0.000000 1.000000 0.000000
vn 0.000000 1.000000 0.000000
vn 0.000000 1.000000 0.000000
vn 0.000000 1.000000 0.000000
vn 0.000000 1.000000 0.000000
vn 0.000000 1.000000 0.000000
vn 0.000000 1.000000 0.000000
vn 0.000000 1.000000 0.000000
vn 0.000000 1.000000 0.000000
vn 0.000000 1.000000 0.000000
vn 0.000000 1.000000 0.000000
vn 0.000000 1.000000 0.000000
vn 0.000000 1.000000 0.000000
vn 0.000000 1.000000 0.000000
vn 0.000000 1.000000 0.000000
vn 0.000000 1.000000 0.000000
vn 0.000000 1.000000 0.000000
vn 0.000000 1.000000 0.000000
vn 0.000000 1.000000 0.000000
vn 0.000000 1.000000 0.000000
vn 0.000000 1.000000 0.000000
vn 0.000000 1.000000 0.000000
vn 0.000000 1.000000 0.000000
vn 0.000000 1.000000 0.000000
vn 0.000000 1.000000 0.000000
vn 0.000000 1.000000 0.000000
vn 0.000000 1.000000 0.000000
vn 0.000000 1.000000 0.000000
vn 0.000000 1.000000 0.000000
vn 0.000000 1.000000 0.000000
vn 0.000000 1.000000 0.000000
vn 0.000000 1.000000 0.000000
vn 0.000000 1.000000 0.000000
vn 0.000000 1.000000 0.000000
vn 0.000000 1.000000 0.000000
vn 0.000000 1.000000 0.000000
vn 0.000000 1.000000 0.000000
vn 0.000000 1.000000 0.000000
vn 0.000000 1.000000 0.000000
vn 0.000000 1.000000 0.000000
vn 0.000000 1.000000 0.000000
vn 0.000000 1.000000 0.000000
vn 0.000000 1.000000 0.000000
vn 0.000000 1.000000 0.000000
vn 0.000000 1.000000 0.000000
vn 0.000000 1.000000 0.000000
vn 0.000000 1.000000 0.000000
vn 0.000000 1.000000 0.000000
vn 0.000000 1.000000 0.000000
vn 0.000000 1.000000 0.000000
vn 0.000000 1.000000 0.000000
vn 0.000000 1.000000 0.000000
vn 0.000000 1.000000 0.000000
vn 0.000000 1.000000 0.000000
vn 0.000000 1.000000 0.000000
vn 0.000000 1.000000 0.000000
vn 0.000000 1.000000 0.000000
vn 0.000000 1.000000 0.000000
vn 0.000000 1.000000 0.000000
s 1
g pPlane119
usemtl aiStandardSurface3SG
f 1/1/1 2/2/2 13/3/3 12/4/4
f 2/2/2 3/5/5 14/6/6 13/3/3
f 3/5/5 4/9/7 15/10/8 14/6/6
f 4/9/7 5/14/9 16/15/10 15/10/8
f 5/14/9 6/22/11 17/23/12 16/15/10
f 6/22/11 7/32/13 18/33/14 17/23/12
f 7/32/13 8/44/15 19/45/16 18/33/14
f 8/44/15 9/56/17 20/57/18 19/45/16
f 9/56/17 10/69/19 21/70/20 20/57/18
f 10/69/19 11/83/21 22/84/22 21/70/20
f 12/4/4 13/3/3 24/7/23 23/8/24
f 13/3/3 14/6/6 25/11/25 24/7/23
f 14/6/6 15/10/8 26/16/26 25/11/25
f 15/10/8 16/15/10 27/24/27 26/16/26
f 16/15/10 17/23/12 28/34/28 27/24/27
f 17/23/12 18/33/14 29/46/29 28/34/28
f 18/33/14 19/45/16 30/58/30 29/46/29
f 19/45/16 20/57/18 31/71/31 30/58/30
f 20/57/18 21/70/20 32/85/32 31/71/31
f 21/70/20 22/84/22 33/97/33 32/85/32
f 23/8/24 24/7/23 35/12/34 34/13/35
f 24/7/23 25/11/25 36/17/36 35/12/34
f 25/11/25 26/16/26 37/25/37 36/17/36
f 26/16/26 27/24/27 38/35/38 37/25/37
f 27/24/27 28/34/28 39/47/39 38/35/38
f 28/34/28 29/46/29 40/59/40 39/47/39
f 29/46/29 30/58/30 41/72/41 40/59/40
f 30/58/30 31/71/31 42/86/42 41/72/41
f 31/71/31 32/85/32 43/98/43 42/86/42
f 32/85/32 33/97/33 44/107/44 43/98/43
f 34/13/35 35/12/34 46/18/45 45/19/46
f 35/12/34 36/17/36 47/26/47 46/18/45
f 36/17/36 37/25/37 48/36/48 47/26/47
f 37/25/37 38/35/38 49/48/49 48/36/48
f 38/35/38 39/47/39 50/60/50 49/48/49
f 39/47/39 40/59/40 51/73/51 50/60/50
f 40/59/40 41/72/41 52/87/52 51/73/51
f 41/72/41 42/86/42 53/99/53 52/87/52
f 42/86/42 43/98/43 54/108/54 53/99/53
f 43/98/43 44/107/44 55/117/55 54/108/54
f 45/19/46 46/18/45 57/27/56 56/28/57
f 46/18/45 47/26/47 58/37/58 57/27/56
f 47/26/47 48/36/48 59/49/59 58/37/58
f 48/36/48 49/48/49 60/61/60 59/49/59
f 49/48/49 50/60/50 61/74/61 60/61/60
f 50/60/50 51/73/51 62/88/62 61/74/61
f 51/73/51 52/87/52 63/100/63 62/88/62
f 52/87/52 53/99/53 64/109/64 63/100/63
f 53/99/53 54/108/54 65/118/65 64/109/64
f 54/108/54 55/117/55 66/127/66 65/118/65
f 56/28/57 57/27/56 68/38/67 67/39/68
f 57/27/56 58/37/58 69/50/69 68/38/67
f 58/37/58 59/49/59 70/62/70 69/50/69
f 59/49/59 60/61/60 71/75/71 70/62/70
f 60/61/60 61/74/61 72/89/72 71/75/71
f 61/74/61 62/88/62 73/101/73 72/89/72
f 62/88/62 63/100/63 74/110/74 73/101/73
f 63/100/63 64/109/64 75/119/75 74/110/74
f 64/109/64 65/118/65 76/128/76 75/119/75
f 65/118/65 66/127/66 77/137/77 76/128/76
f 67/39/68 68/38/67 79/51/78 78/52/79
f 68/38/67 69/50/69 80/63/80 79/51/78
f 69/50/69 70/62/70 81/76/81 80/63/80
f 70/62/70 71/75/71 82/90/82 81/76/81
f 71/75/71 72/89/72 83/102/83 82/90/82
f 72/89/72 73/101/73 84/111/84 83/102/83
f 73/101/73 74/110/74 85/120/85 84/111/84
f 74/110/74 75/119/75 86/129/86 85/120/85
f 75/119/75 76/128/76 87/138/87 86/129/86
f 76/128/76 77/137/77 88/145/88 87/138/87
f 78/52/79 79/51/78 90/64/89 89/65/90
f 79/51/78 80/63/80 91/77/91 90/64/89
f 80/63/80 81/76/81 92/91/92 91/77/91
f 81/76/81 82/90/82 93/103/93 92/91/92
f 82/90/82 83/102/83 94/112/94 93/103/93
f 83/102/83 84/111/84 95/121/95 94/112/94
f 84/111/84 85/120/85 96/130/96 95/121/95
f 85/120/85 86/129/86 97/139/97 96/130/96
f 86/129/86 87/138/87 98/146/98 97/139/97
f 87/138/87 88/145/88 99/152/99 98/146/98
f 89/65/90 90/64/89 101/78/100 100/79/101
f 90/64/89 91/77/91 102/92/102 101/78/100
f 91/77/91 92/91/92 103/104/103 102/92/102
f 92/91/92 93/103/93 104/113/104 103/104/103
f 93/103/93 94/112/94 105/122/105 104/113/104
f 94/112/94 95/121/95 106/131/106 105/122/105
f 95/121/95 96/130/96 107/140/107 106/131/106
f 96/130/96 97/139/97 108/147/108 107/140/107
f 97/139/97 98/146/98 109/153/109 108/147/108
f 98/146/98 99/152/99 110/158/110 109/153/109
f 100/79/101 101/78/100 112/93/111 111/94/112
f 101/78/100 102/92/102 113/105/113 112/93/111
f 102/92/102 103/104/103 114/114/114 113/105/113
f 103/104/103 104/113/104 115/123/115 114/114/114
f 104/113/104 105/122/105 116/132/116 115/123/115
f 105/122/105 106/131/106 117/141/117 116/132/116
f 106/131/106 107/140/107 118/148/118 117/141/117
f 107/140/107 108/147/108 119/154/119 118/148/118
f 108/147/108 109/153/109 120/159/120 119/154/119
f 109/153/109 110/158/110 121/162/121 120/159/120
s 2
f 157/31/122 158/30/123 123/42/124 122/43/125
s 3
f 44/107/126 33/97/127 136/115/128 137/116/129
s 4
f 158/30/130 159/41/131 126/55/132 123/42/133
s 5
f 55/117/134 44/107/135 137/116/136 138/126/137
s 6
f 159/41/138 160/54/139 128/68/140 126/55/141
s 7
f 66/127/142 55/117/143 138/126/144 139/136/145
s 8
f 160/54/146 161/67/147 130/82/148 128/68/149
s 9
f 77/137/150 66/127/151 139/136/152 140/144/153
s 10
f 161/67/154 162/81/155 132/96/156 130/82/157
s 11
f 88/145/158 77/137/159 140/144/160 141/151/161
s 12
f 162/81/162 163/95/163 134/106/164 132/96/165
s 13
f 99/152/166 88/145/167 141/151/168 142/157/169
s 3
f 137/116/129 136/115/128 143/124/170 144/125/171
s 5
f 138/126/137 137/116/136 144/125/172 145/135/173
s 7
f 139/136/145 138/126/144 145/135/174 146/143/175
s 9
f 140/144/153 139/136/152 146/143/176 147/150/177
s 11
f 141/151/161 140/144/160 147/150/178 148/156/179
s 13
f 142/157/169 141/151/168 148/156/180 149/161/181
s 3
f 144/125/171 143/124/170 124/133/182 125/134/183
s 5
f 145/135/173 144/125/172 125/134/184 127/142/185
s 7
f 146/143/175 145/135/174 127/142/186 129/149/187
s 9
f 147/150/177 146/143/176 129/149/188 131/155/189
s 11
f 148/156/179 147/150/178 131/155/190 133/160/191
s 13
f 149/161/181 148/156/180 133/160/192 135/163/193
s 2
f 23/8/194 34/13/195 151/20/196 150/21/197
s 4
f 34/13/198 45/19/199 152/29/200 151/20/201
s 6
f 45/19/202 56/28/203 153/40/204 152/29/205
s 8
f 56/28/206 67/39/207 154/53/208 153/40/209
s 10
f 67/39/210 78/52/211 155/66/212 154/53/213
s 12
f 78/52/214 89/65/215 156/80/216 155/66/217
s 2
f 150/21/197 151/20/196 158/30/123 157/31/122
s 4
f 151/20/201 152/29/200 159/41/131 158/30/130
s 6
f 152/29/205 153/40/204 160/54/139 159/41/138
s 8
f 153/40/209 154/53/208 161/67/147 160/54/146
s 10
f 154/53/213 155/66/212 162/81/155 161/67/154
s 12
f 155/66/217 156/80/216 163/95/163 162/81/162
